<svg xmlns="http://www.w3.org/2000/svg" width="30.165" height="30.164" viewBox="0 0 30.165 30.164">
  <g id="Gruppe_37" data-name="Gruppe 37" transform="translate(0)">
    <path id="Pfad_48" data-name="Pfad 48" d="M1055.683,216.228a5.281,5.281,0,1,0,5.28,5.281A5.28,5.28,0,0,0,1055.683,216.228Z" transform="translate(-1040.568 -206.649)" fill="#fff"/>
    <path id="Pfad_49" data-name="Pfad 49" d="M1036.325,182.182h-11.578a9.3,9.3,0,0,0-9.293,9.293v11.578a9.292,9.292,0,0,0,9.293,9.293h11.578a9.292,9.292,0,0,0,9.293-9.293V191.475A9.3,9.3,0,0,0,1036.325,182.182Zm-5.756,23.638a8.777,8.777,0,1,1,8.777-8.777A8.778,8.778,0,0,1,1030.569,205.82Zm8.169-15.46a2.232,2.232,0,1,1,2.233-2.232A2.231,2.231,0,0,1,1038.738,190.36Z" transform="translate(-1015.454 -182.182)" fill="#fff"/>
  </g>
</svg>
