<svg id="Layer_1" xmlns="http://www.w3.org/2000/svg" viewBox="0 0 207.04 82.64"><style>.st0{fill:#fff}</style><path class="st0" d="M20.54 82.64H0V0h20.54v82.64zM22.67 82.64V0h38.84c3.31 0 4.37 1.06 4.37 4.37v78.27H45.21V17.83H43.2v64.81H22.67zM101.77 60c0 3.7-1.11 4.81-4.81 4.81H67.88V0h29.07c3.7 0 4.81 1.11 4.81 4.81V60zm-17.78-9.17h1.57V13.98h-1.57v36.85zM136.68 38.52h-17.22v12.32h1.57V40.09h15.65v24.72h-33.33V0h33.33v22.96h-15.65v-8.98h-1.57v10.56h17.22v13.98zM171.58 38.52h-17.22v12.32h1.57V40.09h15.65v24.72h-33.33V0h33.33v22.96h-15.65v-8.98h-1.57v10.56h17.22v13.98zM207.04 60c0 3.7-1.11 4.81-4.81 4.81h-29.07V0h29.07c3.7 0 4.81 1.11 4.81 4.81V60zm-17.77-9.17h1.57V13.98h-1.57v36.85zM207.04 82.64H67.88V65.98h136.43c1.51 0 2.73 1.22 2.73 2.73v13.93z"/></svg>