<svg xmlns="http://www.w3.org/2000/svg" width="34.47" height="28.016" viewBox="0 0 34.47 28.016">
  <path id="Pfad_52" data-name="Pfad 52" d="M843.938,617.052c13.01,0,20.123-10.779,20.123-20.124,0-.306,0-.611-.021-.913a14.34,14.34,0,0,0,3.527-3.662,14.171,14.171,0,0,1-4.06,1.113,7.115,7.115,0,0,0,3.11-3.912,14.229,14.229,0,0,1-4.492,1.718,7.073,7.073,0,0,0-12.233,4.835,7.227,7.227,0,0,0,.181,1.615,20.094,20.094,0,0,1-14.578-7.39,7.075,7.075,0,0,0,2.191,9.44,7.019,7.019,0,0,1-3.2-.886c0,.032,0,.06,0,.09a7.074,7.074,0,0,0,5.672,6.934,7.088,7.088,0,0,1-1.861.25,6.985,6.985,0,0,1-1.33-.13,7.08,7.08,0,0,0,6.605,4.914,14.181,14.181,0,0,1-8.784,3.028,14.367,14.367,0,0,1-1.686-.1,20,20,0,0,0,10.841,3.179" transform="translate(-833.097 -589.036)" fill="#fff"/>
</svg>
